<?xml version="1.0" encoding="UTF-8" standalone="no"?>
<svg
   xmlns:dc="http://purl.org/dc/elements/1.1/"
   xmlns:cc="http://creativecommons.org/ns#"
   xmlns:rdf="http://www.w3.org/1999/02/22-rdf-syntax-ns#"
   xmlns:svg="http://www.w3.org/2000/svg"
   xmlns="http://www.w3.org/2000/svg"
   xmlns:sodipodi="http://sodipodi.sourceforge.net/DTD/sodipodi-0.dtd"
   xmlns:inkscape="http://www.inkscape.org/namespaces/inkscape"
   width="847.4483"
   height="393.70001"
   version="1.1"
   inkscape:version="0.48.5 r10040"
   id="svg2"
   sodipodi:docname="logo.svg">
  <sodipodi:namedview
     pagecolor="#ffffff"
     bordercolor="#666666"
     borderopacity="1"
     objecttolerance="10"
     gridtolerance="10"
     guidetolerance="10"
     inkscape:pageopacity="0"
     inkscape:pageshadow="2"
     inkscape:window-width="1873"
     inkscape:window-height="1056"
     id="namedview18"
     showgrid="false"
     fit-margin-left="25"
     fit-margin-top="25"
     fit-margin-right="25"
     fit-margin-bottom="25"
     inkscape:zoom="0.29742612"
     inkscape:cx="-251.88173"
     inkscape:cy="190.35275"
     inkscape:window-x="47"
     inkscape:window-y="24"
     inkscape:window-maximized="1"
     inkscape:current-layer="g8" />
  <defs
     id="defs4" />
  <metadata
     id="metadata6">
    <rdf:RDF>
      <cc:Work
         rdf:about="">
        <dc:format>image/svg+xml</dc:format>
        <dc:type
           rdf:resource="http://purl.org/dc/dcmitype/StillImage" />
        <dc:title />
      </cc:Work>
    </rdf:RDF>
  </metadata>
  <g
     inkscape:label="Layer 1"
     inkscape:groupmode="layer"
     id="g8"
     transform="translate(-125.8,-168.7)">
    <path
       style="fill:#a1887f;fill-opacity:1;stroke:none"
       d="m 491.4,193.7 c -31.2,0 -45,58.3 -45,173.8 0,115.5 22.1,169.9 47.8,169.9 13.3,0 22.2,-0.2 218,-0.2 171.1,-0.1 176,-3.6 181.9,-3.9 41.6,-2.3 52.2,-50.7 54,-166.6 1.7,-116 -10.8,-168.5 -59,-170.1 -11.5,0 -24.7,2.7 -197.3,1 C 521,196 500.2,193.7 491.4,193.7 z m -10.5,17.8 c 13.8,0 25,67 25,149.8 l -25,0.2 25,0 c 0,82.9 -11.2,150.1 -25,150.1 -13.7,0 -24.9,-67.2 -24.9,-150.1 0,-82.9 11.2,-150 24.9,-150 z m 52.6,34 61.3,0.5 c 0,0 45.5,1.5 45.5,66 0,64.5 -45.5,66.8 -45.5,66.8 l -30.2,0 0,94.4 -31.1,0 0,-227.7 z m 132.7,1.1 26.8,0 0,28 -26.8,0 0,-28 z m -100.9,29.3 0,72.5 23.4,0 c 5.7,0 18.3,-5.1 18.3,-35.2 0,-36.8 -13.3,-37.3 -18.3,-37.3 l -23.4,0 z m 217.8,26.9 c 15.3,0.2 26.2,9.5 27.1,30.2 0.8,20.7 0,110.3 -1.2,118.6 -1.1,8.4 -4.9,22.7 -25.6,22.7 -18.7,0 -32.2,-18.6 -32.2,-18.6 l 0,74.2 -28.3,0 0,-226 28.3,0 0,17.6 c 0,0 18.7,-19 31.9,-18.7 z m 98.5,0.3 c 35.1,0 45.2,32.2 45.2,38.5 0,6.4 -0.3,50.1 -0.3,50.1 l -61.2,0 c 0,0 -1.1,41 0,46.7 2,10.3 11.2,11.3 15.1,11.4 5,0.2 14.4,-3.7 15,-9.1 0.6,-5.4 0,-25.4 0,-25.4 l 29.7,0.3 0,28.2 c 0,4.9 -15.3,30.3 -44.4,30.3 -29.1,0 -43.5,-28 -43.5,-35.2 l 0,-97.3 c 0,-5.7 9.2,-38.5 44.4,-38.5 z m -215.4,0.5 27.7,0 0,170.2 -27.7,0 0,-170.2 z m 103.4,23.5 c -7.6,0.1 -18.7,8.5 -18.7,8.5 l 0,103.9 c 0,0 11.2,11.3 18.1,11 6.9,-0.3 10.6,-4.9 11.2,-8.4 0.6,-3.4 0,-98.8 0,-98.8 0,0 0,-14.6 -9.2,-16.1 -0.5,-0.1 -0.9,-0.1 -1.4,-0.1 z m 112,0.1 c -9.1,0 -16.4,7.6 -16.4,13.5 l 0,28.7 31.9,0 0,-28.9 c 0,-5.1 -6.5,-13.3 -15.5,-13.3 z"
       id="path10"
       inkscape:connector-curvature="0" />
    <path
       style="fill:#212121;fill-opacity:1;stroke:#000000;stroke-width:1px;stroke-linecap:butt;stroke-linejoin:miter;stroke-opacity:1"
       d="m 186.1,245 23.8,88.9 23.8,-88.9 35.6,-0.1 -40.8,134.8 0,93.8 -36,-0.4 0,-93.2 -41.2,-135.1 z"
       inkscape:connector-curvature="0"
       id="path12" />
    <path
       inkscape:connector-curvature="0"
       style="fill:#212121;fill-opacity:1;stroke:#000000;stroke-width:1px;stroke-linecap:butt;stroke-linejoin:miter;stroke-opacity:1"
       d="m 308.7,300.8 c -42,0 -44.3,39.4 -44.3,39.4 l 0.6,101.3 c 0,0 5.8,35.4 44.1,35.4 38.3,0 44.3,-37.7 44.3,-37.7 l -0.3,-98.4 c 0,0 -2.3,-40 -44.3,-40 z m 0,29.1 c 13.2,0 12.9,11.2 12.9,11.2 l 0,96.4 c 0,0 -0.9,10.9 -13.8,10.9 -13,0 -12.9,-10.1 -12.9,-10.1 l 0,-96.5 c 0,0 0.6,-12.1 13.8,-12.1 z"
       id="path14" />
    <path
       style="fill:#212121;fill-opacity:1;stroke:#000000;stroke-width:1px;stroke-linecap:butt;stroke-linejoin:miter;stroke-opacity:1"
       d="m 378.3,302.5 31.7,0 0,140.8 c 0,0 -2.3,9.2 8.6,5.2 10.9,-4 17,-15.8 17,-15.8 l 0,-130.4 31.4,0 0,171.6 -31.1,0 0,-18.1 c 0,0 -16.1,22.5 -37.1,19.9 -21,-2.6 -20.4,-28.5 -20.4,-28.5 z"
       inkscape:connector-curvature="0"
       id="path16" />
  </g>
</svg>
