<?xml version="1.0" encoding="UTF-8" standalone="no"?>
<svg
   xmlns:dc="http://purl.org/dc/elements/1.1/"
   xmlns:cc="http://creativecommons.org/ns#"
   xmlns:rdf="http://www.w3.org/1999/02/22-rdf-syntax-ns#"
   xmlns:svg="http://www.w3.org/2000/svg"
   xmlns="http://www.w3.org/2000/svg"
   xmlns:sodipodi="http://sodipodi.sourceforge.net/DTD/sodipodi-0.dtd"
   xmlns:inkscape="http://www.inkscape.org/namespaces/inkscape"
   width="297mm"
   height="210mm"
   version="1.1"
   inkscape:version="0.48.5 r10040"
   id="svg2"
   sodipodi:docname="logo.svg">
  <sodipodi:namedview
     pagecolor="#ffffff"
     bordercolor="#666666"
     borderopacity="1"
     objecttolerance="10"
     gridtolerance="10"
     guidetolerance="10"
     inkscape:pageopacity="0"
     inkscape:pageshadow="2"
     inkscape:window-width="1873"
     inkscape:window-height="1056"
     id="namedview18"
     showgrid="false"
     inkscape:zoom="0.8412481"
     inkscape:cx="464.54408"
     inkscape:cy="414.16456"
     inkscape:window-x="47"
     inkscape:window-y="24"
     inkscape:window-maximized="1"
     inkscape:current-layer="g8" />
  <defs
     id="defs4" />
  <metadata
     id="metadata6">
    <rdf:RDF>
      <cc:Work
         rdf:about="">
        <dc:format>image/svg+xml</dc:format>
        <dc:type
           rdf:resource="http://purl.org/dc/dcmitype/StillImage" />
        <dc:title></dc:title>
      </cc:Work>
    </rdf:RDF>
  </metadata>
  <g
     inkscape:label="Layer 1"
     inkscape:groupmode="layer"
     id="g8">
    <path
       style="fill:#ffffff;stroke:none;stroke-width:1px;stroke-linecap:butt;stroke-linejoin:miter;stroke-opacity:1;fill-opacity:1;opacity:1"
       d="M 491.4 193.7 C 460.2 193.7 446.4 252 446.4 367.5 C 446.4 483 468.5 537.4 494.2 537.4 C 507.5 537.4 516.4 537.2 712.2 537.2 C 883.3 537.1 888.2 533.6 894.1 533.3 C 935.7 531 946.3 482.6 948.1 366.7 C 949.8 250.7 937.3 198.2 889.1 196.6 C 877.6 196.6 864.4 199.3 691.8 197.6 C 521 196 500.2 193.7 491.4 193.7 z M 480.9 211.5 C 494.7 211.5 505.9 278.5 505.9 361.3 L 480.9 361.5 L 505.9 361.5 C 505.9 444.4 494.7 511.6 480.9 511.6 C 467.2 511.6 456 444.4 456 361.5 C 456 278.6 467.2 211.5 480.9 211.5 z M 533.5 245.5 L 594.8 246 C 594.8 246 640.3 247.5 640.3 312 C 640.3 376.5 594.8 378.8 594.8 378.8 L 564.6 378.8 L 564.6 473.2 L 533.5 473.2 L 533.5 245.5 z M 666.2 246.6 L 693 246.6 L 693 274.6 L 666.2 274.6 L 666.2 246.6 z M 565.3 275.9 L 565.3 348.4 L 588.7 348.4 C 594.4 348.4 607 343.3 607 313.2 C 607 276.4 593.7 275.9 588.7 275.9 L 565.3 275.9 z M 783.1 302.8 C 798.4 303 809.3 312.3 810.2 333 C 811 353.7 810.2 443.3 809 451.6 C 807.9 460 804.1 474.3 783.4 474.3 C 764.7 474.3 751.2 455.7 751.2 455.7 L 751.2 529.9 L 722.9 529.9 L 722.9 303.9 L 751.2 303.9 L 751.2 321.5 C 751.2 321.5 769.9 302.5 783.1 302.8 z M 881.6 303.1 C 916.7 303.1 926.8 335.3 926.8 341.6 C 926.8 348 926.5 391.7 926.5 391.7 L 865.3 391.7 C 865.3 391.7 864.2 432.7 865.3 438.4 C 867.3 448.7 876.5 449.7 880.4 449.8 C 885.4 450 894.8 446.1 895.4 440.7 C 896 435.3 895.4 415.3 895.4 415.3 L 925.1 415.6 L 925.1 443.8 C 925.1 448.7 909.8 474.1 880.7 474.1 C 851.6 474.1 837.2 446.1 837.2 438.9 L 837.2 341.6 C 837.2 335.9 846.4 303.1 881.6 303.1 z M 666.2 303.6 L 693.9 303.6 L 693.9 473.8 L 666.2 473.8 L 666.2 303.6 z M 769.6 327.1 C 762 327.2 750.9 335.6 750.9 335.6 L 750.9 439.5 C 750.9 439.5 762.1 450.8 769 450.5 C 775.9 450.2 779.6 445.6 780.2 442.1 C 780.8 438.7 780.2 343.3 780.2 343.3 C 780.2 343.3 780.2 328.7 771 327.2 C 770.5 327.1 770.1 327.1 769.6 327.1 z M 881.6 327.2 C 872.5 327.2 865.2 334.8 865.2 340.7 L 865.2 369.4 L 897.1 369.4 L 897.1 340.5 C 897.1 335.4 890.6 327.2 881.6 327.2 z "
       id="path10" />
    <path
       style="fill:#ffffff;fill-opacity:1;stroke:#ffffff;stroke-width:1px;stroke-linecap:butt;stroke-linejoin:miter;stroke-opacity:1"
       d="m 186.1 245 23.8 88.9 23.8 -88.9 35.6 -0.1 -40.8 134.8 0 93.8 -36 -0.4 0 -93.2 -41.2 -135.1 z"
       inkscape:connector-curvature="0"
       id="path12" />
    <path
       inkscape:connector-curvature="0"
       style="fill:#ffffff;fill-opacity:1;stroke:#ffffff;stroke-width:1px;stroke-linecap:butt;stroke-linejoin:miter;stroke-opacity:1"
       d="m 308.7 300.8 c -42 0 -44.3 39.4 -44.3 39.4 l 0.6 101.3 c 0 0 5.8 35.4 44.1 35.4 38.3 0 44.3 -37.7 44.3 -37.7 l -0.3 -98.4 c 0 0 -2.3 -40 -44.3 -40 z m 0 29.1 c 13.2 0 12.9 11.2 12.9 11.2 l 0 96.4 c 0 0 -0.9 10.9 -13.8 10.9 -13 0 -12.9 -10.1 -12.9 -10.1 l 0 -96.5 c 0 0 0.6 -12.1 13.8 -12.1 z"
       id="path14" />
    <path
       style="fill:#ffffff;fill-opacity:1;stroke:#ffffff;stroke-width:1px;stroke-linecap:butt;stroke-linejoin:miter;stroke-opacity:1"
       d="m 378.3 302.5 31.7 0 0 140.8 c 0 0 -2.3 9.2 8.6 5.2 10.9 -4 17 -15.8 17 -15.8 l 0 -130.4 31.4 0 0 171.6 -31.1 0 0 -18.1 c 0 0 -16.1 22.5 -37.1 19.9 -21 -2.6 -20.4 -28.5 -20.4 -28.5 z"
       inkscape:connector-curvature="0"
       id="path16" />
  </g>
</svg>
