<?xml version="1.0" encoding="UTF-8" standalone="no"?>
<!-- Created with Inkscape (http://www.inkscape.org/) -->
<svg id="svg2985" xmlns:rdf="http://www.w3.org/1999/02/22-rdf-syntax-ns#" xmlns="http://www.w3.org/2000/svg" height="385.61" width="140" version="1.1" preserveAspectRatio="none" xmlns:cc="http://creativecommons.org/ns#" xmlns:xlink="http://www.w3.org/1999/xlink" xmlns:dc="http://purl.org/dc/elements/1.1/">
 <defs id="defs2987">
  <linearGradient id="linearGradient6410" y2="535.09" gradientUnits="userSpaceOnUse" x2="471.7" y1="276.42" x1="471.7">
   <stop id="stop6398" stop-color="#6d4c41" offset="0"/>
   <stop id="stop6400" stop-color="#8d6e63" offset="1"/>
  </linearGradient>
 </defs>
 <metadata id="metadata2991">
  <rdf:RDF>
   <cc:Work rdf:about="">
    <dc:format>image/svg+xml</dc:format>
    <dc:type rdf:resource="http://purl.org/dc/dcmitype/StillImage"/>
    <dc:title/>
   </cc:Work>
  </rdf:RDF>
 </metadata>
 <g id="layer1" transform="translate(-360.94 -103.05)">
  <path id="path3890" d="m408.55 108.05c-32.651 0-47.106 63.657-47.106 189.92 0 126.27 23.155 185.69 50.032 185.69 13.854 0-38.297-0.25658 11.84-0.25658 17.91 0 14.606-3.8277 20.791-4.1935 43.427-2.5684 54.532-55.419 56.382-182.13 1.8499-126.71-11.229-184.13-61.636-185.91-2.5248 0.35355-3.2137 0.79196-6.4625 0.79196-26.639 0-14.724-3.9187-23.839-3.9187z" fill="#a1887f"/>
  <path id="path3892" d="m489.58 378.47a18.894 161.24 0 1 1 -0.00002 -0.25356" transform="matrix(1.3806 0 0 1.0171 -252.8 -93.475)" fill="url(#linearGradient6410)"/>
 </g>
</svg>
