<?xml version="1.0" encoding="UTF-8" standalone="no"?>
<!-- Created with Inkscape (http://www.inkscape.org/) -->
<svg id="svg2985" xmlns:rdf="http://www.w3.org/1999/02/22-rdf-syntax-ns#" xmlns="http://www.w3.org/2000/svg" height="210mm" width="297mm" version="1.1" xmlns:cc="http://creativecommons.org/ns#" xmlns:dc="http://purl.org/dc/elements/1.1/">
 <metadata id="metadata2991">
  <rdf:RDF>
   <cc:Work rdf:about="">
    <dc:format>image/svg+xml</dc:format>
    <dc:type rdf:resource="http://purl.org/dc/dcmitype/StillImage"/>
    <dc:title/>
   </cc:Work>
  </rdf:RDF>
 </metadata>
 <g id="layer1">
  <text id="text3821" style="word-spacing:0px;letter-spacing:0px" xml:space="preserve" font-size="72px" y="129.26968" x="238.05646" font-family="Roboto" line-height="125%" fill="#ffffff"><tspan id="tspan3823" style="text-anchor:end;text-align:end" y="129.26968" x="238.05646">.AVI</tspan><tspan id="tspan2993" style="text-anchor:end;text-align:end" y="219.26968" x="238.05646">.MP4</tspan><tspan id="tspan2995" style="text-anchor:end;text-align:end" y="309.26968" x="238.05646">.MPG</tspan><tspan id="tspan2997" style="text-anchor:end;text-align:end" y="399.26968" x="238.05646">.WAV</tspan><tspan id="tspan2999" style="text-anchor:end;text-align:end" y="489.26968" x="238.05646">.MP3</tspan><tspan id="tspan3001" style="text-anchor:end;text-align:end" y="579.26965" x="238.05646">X264</tspan><tspan id="tspan3003" style="text-anchor:end;text-align:end" y="669.26965" x="238.05646">WEBP</tspan><tspan id="tspan3005" style="text-anchor:end;text-align:end" y="759.26965" x="238.05646"/></text>
  <text id="text3007" style="word-spacing:0px;letter-spacing:0px" line-height="125%" font-size="72px" y="126.01231" x="816.23932" font-family="Roboto" xml:space="preserve" fill="#ffffff"><tspan id="tspan3009" y="126.01231" x="816.23932">.AVI</tspan><tspan id="tspan3011" y="216.0123" x="816.23932">.MP4</tspan><tspan id="tspan3013" y="306.0123" x="816.23932">.MPG</tspan><tspan id="tspan3015" y="396.0123" x="816.23932">.WAV</tspan><tspan id="tspan3017" y="486.0123" x="816.23932">.MP3</tspan><tspan id="tspan3019" y="576.01233" x="816.23932">X264</tspan><tspan id="tspan3021" y="666.01233" x="816.23932">WEBP</tspan><tspan id="tspan3023" y="756.01233" x="816.23932"/></text>
  <path id="path3890-4" d="m310.93 184.23c-32.651 0-47.094 63.67-47.094 189.94s23.155 185.69 50.031 185.69c13.854 0 23.176-0.22308 227.81-0.28125 178.9-0.0508 184.13-3.8217 190.31-4.1875 43.427-2.5684 54.525-55.419 56.375-182.12 1.8499-126.71-11.218-184.13-61.625-185.91-12.071 0-25.891 2.9866-206.34 1.1562-178.61-1.8116-200.35-4.2812-209.47-4.2812zm-11 19.406c14.39 0.008 26.072 73.281 26.094 163.75v0.25c0 90.57-11.687 163.98-26.094 163.97-14.407-0.008-26.095-73.43-26.094-164 0-90.57 11.687-163.98 26.094-163.97zm205.22 97.188 128.75 70.188-128.75 72.25v-142.44z" fill="#fff"/>
 </g>
</svg>
